<?xml version="1.0" encoding="iso-8859-1"?>
<!-- Uploaded to: SVG Repo, www.svgrepo.com, Generator: SVG Repo Mixer Tools -->
<!DOCTYPE svg PUBLIC "-//W3C//DTD SVG 1.1//EN" "http://www.w3.org/Graphics/SVG/1.1/DTD/svg11.dtd">
<svg fill="#000000" height="800px" width="800px" version="1.1" id="Capa_1" xmlns="http://www.w3.org/2000/svg" xmlns:xlink="http://www.w3.org/1999/xlink" 
	 viewBox="0 0 475.801 475.801" xml:space="preserve">
<g>
	<path d="M285.444,178.195L248.265,53.918c-1.188-3.968-5.368-6.222-9.335-5.036c-3.969,1.187-6.223,5.366-5.036,9.335
		l37.179,124.276c0.973,3.252,3.954,5.353,7.183,5.353c0.711,0,1.436-0.102,2.152-0.316
		C284.377,186.342,286.631,182.163,285.444,178.195z"/>
	<path d="M293.38,203.985c-1.218-3.958-5.413-6.181-9.375-4.962c-3.959,1.218-6.181,5.416-4.962,9.375l3.486,11.328
		c0.992,3.224,3.96,5.296,7.166,5.296c0.73,0,1.474-0.107,2.208-0.333c3.959-1.218,6.181-5.416,4.962-9.375L293.38,203.985z"/>
	<path d="M331.941,243.502l-69.302-225.23C259.224,7.172,249.514,0,237.9,0s-21.324,7.172-24.739,18.272l-69.302,225.23
		c-1.705,5.54-0.868,11.502,2.296,16.358c3.164,4.856,8.279,8.031,14.035,8.71l55.858,6.593c2.343,0.277,4.075,2.338,3.943,4.694
		l-9.333,166.697c-0.399,7.515,2.299,14.992,7.403,20.515c5.025,5.437,11.817,8.534,19.125,8.722
		c0.238,0.006,0.476,0.009,0.713,0.009c0,0,0,0,0.001,0c7.568,0,14.605-3.025,19.813-8.517c5.208-5.492,7.856-12.68,7.453-20.259
		l-9.358-167.167c-0.132-2.355,1.6-4.417,3.944-4.694l55.857-6.593c5.756-0.679,10.871-3.854,14.035-8.71
		C332.808,255.004,333.645,249.042,331.941,243.502z M246.83,456.963c-2.347,2.475-5.518,3.838-8.929,3.838l-0.329-0.004
		c-3.225-0.083-6.242-1.47-8.494-3.908c-2.372-2.566-3.625-6.042-3.441-9.516l9.332-166.676c0.045-0.802,0.015-1.59-0.042-2.372
		l5.939-0.188c-0.074,0.883-0.085,1.651-0.034,2.56l9.357,167.146C250.37,451.248,249.177,454.487,246.83,456.963z M317.077,251.673
		c-0.427,0.655-1.414,1.787-3.225,2.001l-75.649,9.297c-0.462-0.153-76.253-9.297-76.253-9.297
		c-1.811-0.214-2.797-1.346-3.225-2.001c-0.427-0.656-1.064-2.016-0.527-3.759l69.302-225.23C229.241,17.018,234.015,15,237.9,15
		s8.659,2.018,10.402,7.683l69.302,225.231C318.141,249.656,317.504,251.017,317.077,251.673z"/>
</g>
</svg>