<?xml version="1.0" standalone="no"?>
<!DOCTYPE svg PUBLIC "-//W3C//DTD SVG 20010904//EN"
 "http://www.w3.org/TR/2001/REC-SVG-20010904/DTD/svg10.dtd">
<svg version="1.0" xmlns="http://www.w3.org/2000/svg"
 width="440.000000pt" height="440.000000pt" viewBox="0 0 440.000000 440.000000"
 preserveAspectRatio="xMidYMid meet">

<g transform="translate(0.000000,440.000000) scale(0.100000,-0.100000)"
fill="#000000" stroke="none">
<path d="M0 2200 l0 -2000 2200 0 2200 0 0 2000 0 2000 -2200 0 -2200 0 0
-2000z m1891 1126 c54 -37 69 -78 69 -186 0 -138 2 -136 -236 -296 -88 -60
-161 -113 -161 -119 0 -5 77 -62 171 -125 106 -72 179 -128 193 -149 20 -30
23 -47 23 -135 0 -83 -4 -107 -20 -134 -28 -46 -76 -72 -132 -72 -45 0 -61 9
-273 151 -248 166 -296 211 -321 296 -24 82 -16 311 12 373 31 67 76 104 322
270 209 141 225 150 270 150 34 0 58 -7 83 -24z m636 -122 c252 -169 295 -206
324 -284 18 -49 20 -72 17 -205 -3 -139 -5 -154 -30 -200 -36 -68 -52 -81
-303 -251 -208 -141 -222 -148 -275 -152 -65 -4 -109 18 -137 70 -26 47 -26
219 0 266 13 23 70 67 202 155 101 67 183 125 182 129 -1 4 -81 61 -176 125
-96 65 -184 131 -195 146 -31 43 -36 197 -8 260 24 54 75 86 139 87 37 0 64
-15 260 -146z m-2109 -1539 c59 -25 96 -67 116 -132 7 -22 4 -23 -38 -23 -36
0 -46 4 -51 20 -10 33 -54 60 -97 60 -73 0 -118 -42 -118 -110 0 -69 45 -110
121 -110 35 0 47 6 75 35 27 29 40 35 73 35 23 0 41 -2 41 -5 0 -18 -44 -86
-69 -108 -68 -57 -171 -62 -243 -11 -57 40 -83 94 -83 171 0 52 5 68 30 104
56 79 157 109 243 74z m443 3 c127 -43 178 -192 103 -301 -86 -124 -272 -111
-340 23 -31 61 -30 114 4 181 22 44 36 58 81 81 58 30 99 35 152 16z m449 -10
c68 -35 103 -86 108 -158 6 -79 -1 -103 -46 -152 -52 -58 -83 -68 -207 -68
l-105 0 0 131 0 130 43 -3 42 -3 3 -82 3 -83 59 0 c48 0 64 5 88 25 37 31 48
81 28 128 -23 57 -47 67 -163 67 l-103 0 0 45 0 45 103 0 c87 0 110 -3 147
-22z m530 -23 l0 -45 -177 2 -178 3 -3 43 -3 42 180 0 181 0 0 -45z m700 0 l0
-45 -111 0 -111 0 -34 -34 c-28 -28 -34 -42 -34 -76 0 -34 6 -48 34 -76 32
-32 38 -34 100 -34 l66 0 0 40 0 40 -49 0 c-48 0 -49 1 -65 40 -9 22 -16 43
-16 45 0 3 50 5 110 5 l110 0 0 -130 0 -130 -110 0 c-92 0 -118 4 -156 22
-119 55 -148 205 -61 305 51 58 95 73 220 73 l107 0 0 -45z m420 0 l0 -45
-180 0 -180 0 0 45 0 45 180 0 180 0 0 -45z m420 0 l0 -45 -180 0 -180 0 0 45
0 45 180 0 180 0 0 -45z m140 -3 c0 -44 -4 -52 -45 -92 l-45 -44 0 92 0 92 45
0 45 0 0 -48z m290 40 c0 -4 -43 -50 -94 -101 l-95 -93 97 -97 96 -96 -59 -3
-58 -3 -71 70 -71 70 -17 -21 c-12 -14 -18 -39 -18 -70 l0 -48 -45 0 -45 0 0
67 0 68 132 132 133 133 57 0 c32 0 58 -3 58 -8z m371 -30 c16 -18 29 -43 29
-57 0 -22 -4 -25 -39 -25 -25 0 -41 5 -45 15 -8 23 -174 22 -183 -1 -14 -36
10 -49 103 -54 49 -3 99 -11 111 -18 49 -27 67 -106 38 -162 -24 -47 -61 -60
-168 -60 -80 0 -98 3 -121 21 -30 24 -60 75 -51 89 10 16 71 12 85 -5 9 -11
33 -15 91 -15 66 0 80 3 88 19 19 35 -15 51 -108 51 -81 0 -84 1 -116 33 -19
19 -37 46 -41 61 -10 40 16 97 56 124 32 22 44 23 138 20 103 -3 104 -3 133
-36z m184 -12 l0 -45 -47 -3 -48 -3 0 51 0 51 48 -3 47 -3 0 -45z m-2557 -137
l3 -43 -120 0 -121 0 0 -40 0 -40 135 0 135 0 0 -45 0 -45 -180 0 -180 0 0
123 c0 68 3 127 7 131 4 3 77 5 162 4 l156 -3 3 -42z m1112 2 l0 -45 -115 0
-115 0 0 -40 0 -40 135 0 135 0 0 -45 0 -45 -180 0 -180 0 0 130 0 130 160 0
160 0 0 -45z m420 0 l0 -45 -114 0 -114 0 -4 -40 -4 -40 138 0 138 0 0 -45 0
-45 -180 0 -180 0 0 130 0 130 160 0 160 0 0 -45z"/>
<path d="M738 1573 c-51 -32 -66 -114 -30 -162 41 -56 139 -58 182 -4 26 33
27 109 2 139 -37 46 -104 58 -154 27z"/>
</g>
</svg>
